<svg version="1.1" id="Calque_2" xmlns="http://www.w3.org/2000/svg" xmlns:xlink="http://www.w3.org/1999/xlink" x="0" y="0" viewBox="0 0 15 15" xml:space="preserve" enable-background="new 0 0 15 15"><style type="text/css">.st0{fill:url(#SVGID_1_)}.st1{fill:#fff}</style><linearGradient id="SVGID_1_" gradientUnits="userSpaceOnUse" x1="7.5" y1="0" x2="7.5" y2="15"><stop offset="0" stop-color="#0091E6"/><stop offset="1" stop-color="#0079BF"/></linearGradient><path class="st0" d="M13.1,15H1.9c-1,0-1.9-0.8-1.9-1.9V1.9C0,0.8,0.8,0,1.9,0h11.3c1,0,1.9,0.8,1.9,1.9v11.3	C15,14.2,14.2,15,13.1,15z"/><path class="st1" d="M5.6,12.3H2.8c-0.5,0-0.9-0.4-0.9-0.9V2.8C2,2.4,2.4,2,2.8,2h2.8c0.5,0,0.9,0.4,0.9,0.9v8.5	C6.5,11.9,6.1,12.3,5.6,12.3z"/><path class="st1" d="M12.2,8.5H9.4c-0.5,0-0.9-0.4-0.9-0.9V2.8C8.5,2.4,8.9,2,9.4,2h2.8c0.5,0,0.9,0.4,0.9,0.9v4.8	C13.1,8.1,12.6,8.5,12.2,8.5z"/></svg>